inDegrees=no
num_controls=7
num_derivatives=13
num_iterations=94
num_multipliers=7
num_parameters=0
num_slacks=7
num_states=26
objective=0.585234
objective_accelerations=0.128605
objective_balance=0.001963
objective_effort=0.003629
objective_height=0.445090
objective_ligament=0.005948
solver_duration=1332.186323
status=Solve_Succeeded
success=true
DataType=double
version=3
OpenSimVersion=4.5
endheader
time	/jointset/ground_pelvis/pelvis_tilt/value	/jointset/ground_pelvis/pelvis_tx/value	/jointset/ground_pelvis/pelvis_ty/value	/jointset/hip_l/hip_flexion_l/value	/jointset/hip_l/hip_adduction_l/value	/jointset/hip_l/hip_rotation_l/value	/jointset/back/lumbar_extension/value	/jointset/patellofemoral_l/patellar_flexion_l/value	/jointset/knee_l/knee_flexion_l/value	/jointset/knee_l/knee_adduction_l/value	/jointset/knee_l/knee_rotation_l/value	/jointset/ankle_l/ankle_angle_l/value	/jointset/subtalar_l/subtalar_angle_l/value	/jointset/ground_pelvis/pelvis_tilt/speed	/jointset/ground_pelvis/pelvis_tx/speed	/jointset/ground_pelvis/pelvis_ty/speed	/jointset/hip_l/hip_flexion_l/speed	/jointset/hip_l/hip_adduction_l/speed	/jointset/hip_l/hip_rotation_l/speed	/jointset/back/lumbar_extension/speed	/jointset/patellofemoral_l/patellar_flexion_l/speed	/jointset/knee_l/knee_flexion_l/speed	/jointset/knee_l/knee_adduction_l/speed	/jointset/knee_l/knee_rotation_l/speed	/jointset/ankle_l/ankle_angle_l/speed	/jointset/subtalar_l/subtalar_angle_l/speed	/forceset/tau_hip_flexion_l	/forceset/tau_hip_adduction_l	/forceset/tau_hip_rotation_l	/forceset/tau_knee_flexion_l	/forceset/tau_ankle_angle_l	/forceset/tau_subtalar_angle_l	/forceset/tau_lumbar_extension	lambda_cid13_p0	lambda_cid13_p1	lambda_cid13_p2	lambda_cid13_p3	lambda_cid13_p4	lambda_cid13_p5	lambda_cid14_p0	/jointset/ground_pelvis/pelvis_tilt/accel	/jointset/ground_pelvis/pelvis_tx/accel	/jointset/ground_pelvis/pelvis_ty/accel	/jointset/hip_l/hip_flexion_l/accel	/jointset/hip_l/hip_adduction_l/accel	/jointset/hip_l/hip_rotation_l/accel	/jointset/back/lumbar_extension/accel	/jointset/patellofemoral_l/patellar_flexion_l/accel	/jointset/knee_l/knee_flexion_l/accel	/jointset/knee_l/knee_adduction_l/accel	/jointset/knee_l/knee_rotation_l/accel	/jointset/ankle_l/ankle_angle_l/accel	/jointset/subtalar_l/subtalar_angle_l/accel	gamma_cid13_p0	gamma_cid13_p1	gamma_cid13_p2	gamma_cid13_p3	gamma_cid13_p4	gamma_cid13_p5	gamma_cid14_p0
1.5	-0.1058765517446952	0.1580421613364623	0.9069701545970571	0.1576430495748775	-0.2112290600281473	-0.05444982897636592	-0.06921742121418879	0.04431683590353043	0.04431683590356007	0.1173013256806807	0.1343747804439241	0.07772663637280269	0.2486810297314218	-0.1016168181518408	0.02242681042846206	-0.00558269107094993	0.02559248667731618	0.005360556253090285	-0.02061883778830461	0.1083896771708552	-0.1043215789911382	-0.1043215789911332	0.00292578606743874	-0.0008572845487303406	-0.03116667380924403	-0.007350877465613959	0.01325077253772431	0.06233320345008585	0.02135845830286213	-0.02809850952635945	-0.006828849871089093	-0.05700064315103121	0.01737280899920799	-35.53649431689729	31.16635468396693	-5.465426293288293	4.483918791082645	-460.9074168468465	-20.84257294209058	-17.82919169178642	0.1969767530482237	-0.08936691730313821	0.01037010688050071	-0.01743229487270213	-0.0004287409293329452	0.03473312762825229	-0.1108992987331787	0.153419159735025	0.1534191597350255	0.005360773536373714	-0.01016233911525487	-0.02128778714921089	-0.009991760691070483	2.502436646473597e-11	1.583484991382934e-09	2.110969818125492e-09	-6.899039298707249e-11	3.123764653177395e-09	-1.951090938650562e-10	-3.834801831675767e-10
1.51	-0.1068827899374779	0.1582619527781315	0.9069148589970257	0.1578979664564917	-0.2111754446309911	-0.05465433719517514	-0.06813913452115415	0.04328117558170191	0.04328117558167647	0.1173309033609995	0.1343656688669142	0.07741384682478099	0.2486070322591686	-0.09962538645210359	0.0215300529870911	-0.005475799207837474	0.02538930872331016	0.005361632890892651	-0.02028149499438379	0.1072634647362849	-0.1028059114906978	-0.1028059114906906	0.002988442147392809	-0.0009650432870855837	-0.03139042380083511	-0.007449273896547165	0.01305275166146993	0.06234929369739192	0.02126475153359875	-0.02744626205983438	-0.007247655268866542	-0.05721196683498758	0.01739275291616023	-35.67944613487988	31.22205058239765	-5.404501363685061	4.530044509797492	-460.9147814989804	-20.77651524820143	-17.80629689598707	0.2010413359361735	-0.09004390488299729	0.0109438124892147	-0.02199776444666921	0.000241864392658975	0.03343114377530085	-0.1141117213757571	0.1513267046884051	0.1513267046882209	0.006522264729790557	-0.01108420395514717	-0.02279675956842006	-0.009862617085208561	2.587481076859841e-11	1.557990785863061e-09	2.085769271105475e-09	-6.236119576547557e-11	3.133189477996452e-09	-1.513594587319826e-10	-3.798342495032908e-10
1.52	-0.1078689508217085	0.1584727338959169	0.9068606513329247	0.1581508041146122	-0.2111218452677231	-0.05485543272836697	-0.06707223585360925	0.04226080916663114	0.04226080916664737	0.117361068450923	0.1343554793900996	0.07709884414605868	0.2485320310160473	-0.09760135645240707	0.02062474565167529	-0.005365103884907111	0.0251766420179401	0.005357349459198193	-0.01993630066042432	0.1061120720795839	-0.1012627976106908	-0.1012627976106814	0.003043267807421625	-0.001072864535871277	-0.03160929996857481	-0.007551631639147138	0.01285473078215256	0.06236538394365256	0.02117104476210561	-0.02679401459534395	-0.007666460667163098	-0.05742329052032708	0.01741269683114529	-35.82189449663477	31.27768249066546	-5.343593828816977	4.576961218932238	-460.9134847469462	-20.70736660985468	-17.78360770903665	0.2034964130392103	-0.09107689611133347	0.0111307988439985	-0.0193300451458776	-0.00150075482945934	0.03630343563656507	-0.1159353431597111	0.1589084356480271	0.1589084356480248	0.003794689549860734	-0.01017484120079387	-0.02031302237818936	-0.01078402302497726	3.039730552426426e-11	1.505551414803114e-09	2.073133849723929e-09	-6.113918144832306e-11	3.151822964008965e-09	-1.376643102229182e-10	-3.76734744084904e-10
1.53	-0.1088347149622365	0.1586744223268023	0.9068075691288401	0.1584014694772006	-0.2110683065080257	-0.05505303811489056	-0.066016979778854	0.04125600839589672	0.04125600839600494	0.1173917605047746	0.1343442157934357	0.07678167881878581	0.2484559974934609	-0.09554671188766901	0.01971180976643812	-0.005250769895033393	0.0249554038005684	0.005350366282289615	-0.01958372365590888	0.1049346589988834	-0.09969248490295972	-0.09969248490294327	0.003095566560604734	-0.001179673178577983	-0.03182250875782651	-0.007654555237014927	0.01268428026749277	0.06236218605868746	0.0210857856995787	-0.02620423097681913	-0.008018053449808092	-0.05760776934646976	0.01741704445980292	-35.94134435680516	31.32395640741296	-5.288422018277779	4.61071412493042	-460.9206338317717	-20.65830018425555	-17.76113431893243	0.2071623107000579	-0.09157156037952927	0.01167039349511007	-0.02367479615190204	-0.0003029609547750525	0.03489241890521828	-0.1193168728444081	0.1568235059397797	0.1568235059395573	0.00601142780335482	-0.01090633117387619	-0.02163625426104671	-0.009969352997123012	3.88213538849712e-11	1.424482805356839e-09	2.073848874333258e-09	-6.566229896714268e-11	3.180240652539524e-09	-1.559020537518633e-10	-3.742158186777849e-10
